# xmcd
#
# Track frame offsets:
#	150
#	2820
#	12596
#	14575
#	21713
#	24279
#	33977
#	35903
#	47443
#	50492
#	60477
#	61986
#	78554
#	80284
#	88636
#	90367
#	98458
#	99601
#	110134
#	112139
#	132443
#	134251
#	144681
#	146502
#	160484
#	161562
#	171782
#	173055
#	186162
#	187566
#	199484
#	200600
#	208678
#	210213
#	220538
#	221915
#	230268
#	232181
#	237738
#	238986
#	247456
#	249669
#	265689
#	268582
#	282681
#	285378
#
# Disc length: 3961 seconds
#
# Revision: 1
# Processed by: cddbd v1.5.2PL0 Copyright (c) Steve Scherf et al.
# Submitted via: audiograbber 1.83.01
#
DISCID=b20f772e
DTITLE=Bill and Rosi Caswell - Just For Fun
DYEAR=2002
DGENRE=Bluegrass
TTITLE0=Intro Track 2
TTITLE1=Hoochie-Koochie Honky Tonk
TTITLE2=Intro Track 4
TTITLE3=Caney River Ramble
TTITLE4=Intro Track 6
TTITLE5=The World Is Waiting For The Sunrise
TTITLE6=Intro Track 8
TTITLE7=Whispering
TTITLE8=Intro Track 10
TTITLE9=Beyond Compare
TTITLE10=Intro Track 12
TTITLE11=Yonder Comes A Sucker
TTITLE12=Intro Track 14
TTITLE13=Whiskey Sour
TTITLE14=Intro Track 16
TTITLE15=Barbed Wire Boogie
TTITLE16=Intro Track 18
TTITLE17=I'm Gonna Sit Right Down And Write Myself A Letter
TTITLE18=Intro Track 20
TTITLE19=Slowpoke
TTITLE20=Intro Track 22
TTITLE21=Mr. Sandman
TTITLE22=Intro Track 24
TTITLE23=The Mornin' After
TTITLE24=Intro Track 26
TTITLE25=Sunrise Serenade
TTITLE26=Intro Track 28
TTITLE27=I'm Walkin
TTITLE28=Intro Track 30
TTITLE29=Yes Sir, She's My Baby
TTITLE30=Intro Track 32
TTITLE31=Peg O' My Heart
TTITLE32=Intro Track 34
TTITLE33=Walkin' The Dog
TTITLE34=Intro Track 36
TTITLE35=Nagasaki
TTITLE36=Intro Track 38
TTITLE37=Chicken Dance
TTITLE38=Intro Track 40
TTITLE39=Green Onions
TTITLE40=Intro Track 42
TTITLE41=Mystery Train
TTITLE42=Intro Track 44
TTITLE43=Dust Devil
TTITLE44=Intro Track 46
TTITLE45=Waitin' On The Other Side
EXTD=
EXTT0=
EXTT1=
EXTT2=
EXTT3=
EXTT4=
EXTT5=
EXTT6=
EXTT7=
EXTT8=
EXTT9=
EXTT10=
EXTT11=
EXTT12=
EXTT13=
EXTT14=
EXTT15=
EXTT16=
EXTT17=
EXTT18=
EXTT19=
EXTT20=
EXTT21=
EXTT22=
EXTT23=
EXTT24=
EXTT25=
EXTT26=
EXTT27=
EXTT28=
EXTT29=
EXTT30=
EXTT31=
EXTT32=
EXTT33=
EXTT34=
EXTT35=
EXTT36=
EXTT37=
EXTT38=
EXTT39=
EXTT40=
EXTT41=
EXTT42=
EXTT43=
EXTT44=
EXTT45=
PLAYORDER=
